<svg width="13" height="16" viewBox="0 0 13 16" fill="none" xmlns="http://www.w3.org/2000/svg">
<path d="M12.4375 4V12C12.4375 13.6029 12.2204 14.3782 11.7928 14.7992C11.3622 15.2232 10.5676 15.4375 8.9375 15.4375H4.0625C2.43239 15.4375 1.6378 15.2232 1.20715 14.7992C0.779552 14.3782 0.5625 13.6029 0.5625 12V4C0.5625 2.39711 0.779552 1.62184 1.20715 1.20082C1.6378 0.7768 2.43239 0.5625 4.0625 0.5625H8.9375C10.5676 0.5625 11.3622 0.7768 11.7928 1.20082C12.2204 1.62184 12.4375 2.39711 12.4375 4Z" stroke="#222F5D" stroke-width="1.125" stroke-linecap="round" stroke-linejoin="round"/>
<path d="M8.125 2.7998H4.875" stroke="#222F5D" stroke-width="1.125" stroke-linecap="round" stroke-linejoin="round"/>
<path d="M6.49985 13.6802C7.19539 13.6802 7.75923 13.125 7.75923 12.4402C7.75923 11.7554 7.19539 11.2002 6.49985 11.2002C5.80432 11.2002 5.24048 11.7554 5.24048 12.4402C5.24048 13.125 5.80432 13.6802 6.49985 13.6802Z" stroke="#222F5D" stroke-width="1.125" stroke-linecap="round" stroke-linejoin="round"/>
</svg>
